<svg width="62" height="63" viewBox="0 0 62 63" fill="none" xmlns="http://www.w3.org/2000/svg">
<path d="M43.6333 30L42.5667 19.6L32.1667 18.5333L20.9667 30L21.2333 40.9333L15.6333 35.3333L6.30001 37.2L15.6333 46.5333L24.9667 55.8667L26.8333 46.5333L21.2333 40.9333L32.1667 41.2L43.6333 30Z" fill="white"/>
<path d="M40.4334 32.9334L32.4334 40.9334L44.9667 60.6667L60.1667 45.4667L40.4334 32.9334Z" fill="#C167D1"/>
<path d="M29.2333 21.7333L16.7 2L1.5 17.2L21.2333 29.7333L29.2333 21.7333Z" fill="#C167D1"/>
<path d="M15.6333 46.5334L24.9667 55.8667L26.8333 46.5334L21.2333 40.9334L15.6333 46.5334Z" fill="#C167D1"/>
<path d="M42.5667 19.6L43.6333 30L32.1667 41.2L21.2333 40.9333L42.5667 19.6Z" fill="#C167D1"/>
<path d="M36.4334 36.9334L52.7 53.2" stroke="#703EBB" stroke-width="3" stroke-miterlimit="10" stroke-linecap="round" stroke-linejoin="round"/>
<path d="M53.2333 41.2L40.7 53.7333" stroke="#703EBB" stroke-width="3" stroke-miterlimit="10" stroke-linecap="round" stroke-linejoin="round"/>
<path d="M46.3 36.6667L36.4334 46.8" stroke="#703EBB" stroke-width="3" stroke-miterlimit="10" stroke-linecap="round" stroke-linejoin="round"/>
<path d="M25.2333 25.7333L8.96668 9.46668" stroke="#703EBB" stroke-width="3" stroke-miterlimit="10" stroke-linecap="round" stroke-linejoin="round"/>
<path d="M20.9667 8.93335L8.43335 21.4667" stroke="#703EBB" stroke-width="3" stroke-miterlimit="10" stroke-linecap="round" stroke-linejoin="round"/>
<path d="M25.5 15.8667L15.3667 25.7333" stroke="#703EBB" stroke-width="3" stroke-miterlimit="10" stroke-linecap="round" stroke-linejoin="round"/>
<path d="M32.1667 41.2L21.2333 40.9333L20.9667 30L32.1667 18.5333L42.5667 19.6L43.6333 30L32.1667 41.2Z" stroke="#703EBB" stroke-width="3" stroke-miterlimit="10" stroke-linecap="round" stroke-linejoin="round"/>
<path d="M30.3 20.4L41.7667 31.8667" stroke="#703EBB" stroke-width="3" stroke-miterlimit="10" stroke-linecap="round" stroke-linejoin="round"/>
<path d="M26.8333 46.5333L15.6333 35.3333L6.30001 37.2L15.6333 46.5333L24.9667 55.8667L26.8333 46.5333Z" stroke="#703EBB" stroke-width="3" stroke-miterlimit="10" stroke-linecap="round" stroke-linejoin="round"/>
<path d="M8.16667 54L15.6333 46.5333" stroke="#703EBB" stroke-width="3" stroke-miterlimit="10" stroke-linecap="round" stroke-linejoin="round"/>
<path d="M40.4334 32.9334L32.4334 40.9334L44.9667 60.6667L60.1667 45.4667L40.4334 32.9334Z" stroke="#703EBB" stroke-width="3" stroke-miterlimit="10" stroke-linecap="round" stroke-linejoin="round"/>
<path d="M29.2333 21.7333L16.7 2L1.5 17.2L21.2333 29.7333L29.2333 21.7333Z" stroke="#703EBB" stroke-width="3" stroke-miterlimit="10" stroke-linecap="round" stroke-linejoin="round"/>
</svg>
