<svg width="63" height="63" viewBox="0 0 63 63" fill="none" xmlns="http://www.w3.org/2000/svg">
<path d="M50.3333 34.8L23.6666 49.4667L36.9999 56.6667L50.3333 49.4667V34.8Z" fill="#C067D1"/>
<path d="M55.6666 55.3333H7.66659L2.33325 60.6667H60.9999L55.6666 55.3333Z" fill="#C067D1"/>
<path d="M15.7205 51.104L11.9493 47.3328L8.17811 51.104L11.9493 54.8752L15.7205 51.104Z" fill="#C067D1"/>
<path d="M28.9999 38L36.9999 34L44.9999 38V46L36.9999 50L28.9999 46V38Z" stroke="#703EBB" stroke-width="3" stroke-miterlimit="10" stroke-linejoin="round"/>
<path d="M10.3333 27.8667V23.3333" stroke="#703EBB" stroke-width="3" stroke-miterlimit="10" stroke-linecap="round" stroke-linejoin="round"/>
<path d="M50.3333 49.4667L36.9999 56.6667L23.6666 49.4667V34.8L36.9999 27.3333L50.3333 34.8V49.4667Z" stroke="#703EBB" stroke-width="3" stroke-miterlimit="10" stroke-linejoin="round"/>
<path d="M15.7205 51.104L11.9493 47.3328L8.17811 51.104L11.9493 54.8752L15.7205 51.104Z" stroke="#703EBB" stroke-width="3" stroke-miterlimit="10" stroke-linecap="round" stroke-linejoin="round"/>
<path d="M46.3333 26L42.3333 20.6667H31.6666L27.6666 26L2.33325 28.6667V60.6667H60.9999V28.6667L46.3333 26Z" stroke="#703EBB" stroke-width="3" stroke-miterlimit="10" stroke-linecap="round" stroke-linejoin="round"/>
<path d="M48.9999 7.33333L42.3332 2H31.6666L24.9999 7.33333" stroke="#703EBB" stroke-width="3" stroke-miterlimit="10" stroke-linecap="round" stroke-linejoin="round"/>
<path d="M44.9999 11.3333L39.9332 7.33334H34.0666L28.9999 11.3333" stroke="#703EBB" stroke-width="3" stroke-miterlimit="10" stroke-linecap="round" stroke-linejoin="round"/>
<path d="M40.9999 15.3333L37.7999 12.6667H36.4666L32.9999 15.3333" stroke="#703EBB" stroke-width="3" stroke-miterlimit="10" stroke-linecap="round" stroke-linejoin="round"/>
</svg>
